<svg version="1.2" xmlns="http://www.w3.org/2000/svg" viewBox="0 0 400 400" width="400" height="400">
	<title>thelogojanfolta</title>
	<style>
		.s0 { fill: #000000 } 
	</style>
	<path id="Jan Folta" fill-rule="evenodd" class="s0" d="m21.5 12.6v-0.2c0-0.5 0.6-0.8 1.5-0.8h8.9c0.9 0 1.4 0.3 1.4 0.8v0.2c0 1.3-2.7 1.4-2.7 4l-0.1 27.3c0 14-6.4 18.7-15 18.8-10.8 0.1-14.8-7.2-14.8-11.4 0-2 1.2-3.3 3.1-3.3 5.7 0 2 11.8 12.2 11.8 4.5 0 8.1-4.3 8.1-12.9v-30.3c0-2.6-2.6-2.7-2.6-4zm49.9 48.3c0 1.1-1.9 1.5-4.5 1.5-3.2 0-4.9-0.8-5.2-4.7-1.6 3-5 5-10.2 5-7.8 0-13.2-3.9-13.2-10.7-0.1-6.8 5.6-10.5 13-10.5 3.7 0 6.8 1 8.7 2.8l-0.1-1.9c-0.8-8.4-3.1-12.9-8.8-12.9-7.4 0-6.2 8.1-9.8 8.1-1.7 0-2.7-1-2.7-2.7 0-3.7 4.8-7.7 12.5-7.7 8.8 0 14 5.6 14.9 15l1.5 14.1c0.4 4.4 3.9 2.9 3.9 4.6zm-10.6-8.3l-0.3-3.2c-0.7-3.3-3.6-5.6-7.8-5.6-4.8 0-8.2 2.9-8.2 7.3 0 5.2 3.4 9.3 8.5 9.3 4.8 0 7.9-3.4 7.8-7.8zm49.8 8.3v0.2c0 0.6-0.5 1-1.5 1h-8.4c-0.9 0-1.5-0.4-1.5-1v-0.2c0-1.4 2.7-1.4 2.5-3.9l-0.7-14.2c-0.3-8.7-3.8-12.8-8.7-12.8-5.3 0-8.9 4.2-8.9 9.8v17.2c0 2.5 2.9 2.5 2.9 3.9v0.2c0 0.6-0.6 1-1.5 1h-8.9c-0.9 0-1.4-0.4-1.4-1v-0.2c0-1.4 2.7-1.4 2.7-3.9v-21.5c0-3-2.9-2.9-2.9-4.2v-0.2c0-0.5 0.4-0.8 1.1-1l5.3-2.6c1.4-0.7 2 0 2 1.1v5.1c2.1-3.9 6.2-6.5 11.1-6.5 6.9 0 12.8 4.7 13.5 15.7l0.8 14c0.1 2.6 2.5 2.6 2.5 4zm21.9 0.2v-0.1c0-1.3 2.6-1.4 2.6-4v-40.4c0-2.7-2.6-2.7-2.6-4v-0.2c0-0.5 0.5-0.8 1.3-0.8h29.9c1.1 0 1.5 0.6 1.7 1.6l1.7 7.1c0.2 0.9-0.2 1.4-0.9 1.4h-0.3c-2.2 0-3.9-7.2-7.6-7.2h-14.7c-1.2 0-2 0.7-2 2.3v20.1h13.1c2.4 0 2.6-4.2 4.1-4.2h0.4c0.6 0 0.9 0.5 0.9 1.3v8.7c0 0.7-0.3 1.2-0.9 1.2h-0.4c-1.5 0-1.7-4-4.1-4h-13.1v17.1c0 2.6 2.7 2.7 2.7 4v0.1c0 0.6-0.5 0.9-1.4 0.9h-8.9c-0.9 0-1.5-0.3-1.5-0.9zm34.6-16.6c0-9.9 7.6-17.3 17.3-17.3 10.6 0 18 8.1 18 18 0 9.8-6.7 17.5-16.7 17.5-11.3 0-18.6-8.6-18.6-18.2zm29.1 2.9c0-10-5.3-17.8-12.5-17.8-6.1 0-10.2 4.9-10.2 12.9 0 9.1 5.2 17.9 13 17.9 5.6 0 9.7-5.1 9.7-13zm11.4 13.7v-0.2c0-1.5 2.5-1.4 2.5-3.9v-39.9c0-2.7-2.5-3.2-2.5-4.2v-0.2c0-0.5 0.4-0.8 1-1.1l5.5-2.7c1.5-0.7 2.2 0.1 2.2 1v47.1c0 2.5 2.8 2.4 2.8 3.9v0.2c0 0.5-0.6 0.9-1.4 0.9h-8.7c-0.9 0-1.4-0.4-1.4-0.9zm20.3-9.1v-21.2h-4.7c-0.6 0-1-0.5-1-1.1v-0.7c0-0.7 0.3-1.1 1-1.1h2.6c3.4 0 5-2.7 5.4-6.7 0-0.9 0.5-1.4 1.2-1.4h0.7c0.8 0 1.1 0.5 1.1 1.4l0.1 6.7h9.8c0.6 0 1.1 0.5 1.1 1.1v0.7c0 0.6-0.5 1.1-1.1 1.1h-9.8v21.3c0 3.9 1.8 5.9 4.5 5.9 3.1 0 4.9-1.8 5.2-4.2 0.5-1.1 2.2-1 2.2 0.2 0 4.5-3.5 8.7-9.1 8.7-5.5 0-9.2-3.5-9.2-10.7zm54.8 8.9c0 1.1-1.9 1.5-4.5 1.5-3.2 0-4.9-0.8-5.2-4.7-1.6 3-5 5-10.2 5-7.8 0-13.2-3.9-13.2-10.7-0.1-6.8 5.6-10.5 13-10.5 3.7 0 6.8 1 8.7 2.8l-0.2-1.9c-0.7-8.4-3-12.9-8.7-12.9-7.4 0-6.2 8.1-9.8 8.1-1.7 0-2.8-1-2.8-2.7 0-3.7 4.9-7.7 12.6-7.7 8.7 0 14 5.6 14.9 15l1.4 14.1c0.5 4.4 4 2.9 4 4.6zm-10.6-8.3l-0.3-3.2c-0.7-3.3-3.6-5.6-7.8-5.6-4.8 0-8.2 2.9-8.2 7.3 0 5.2 3.4 9.3 8.5 9.3 4.8 0 7.9-3.4 7.8-7.8z"/>
</svg>
